<?xml version="1.0" encoding="UTF-8" standalone="no"?>
<!DOCTYPE svg PUBLIC "-//W3C//DTD SVG 1.1//EN"
 "http://www.w3.org/Graphics/SVG/1.1/DTD/svg11.dtd">
<!-- Generated by graphviz version 2.43.0 (0)
 -->
<!-- Title: snakemake_dag Pages: 1 -->
<svg width="366pt" height="620pt"
 viewBox="0.00 0.00 366.00 620.00" xmlns="http://www.w3.org/2000/svg" xmlns:xlink="http://www.w3.org/1999/xlink">
<g id="graph0" class="graph" transform="scale(1 1) rotate(0) translate(4 616)">
<title>snakemake_dag</title>
<polygon fill="white" stroke="transparent" points="-4,4 -4,-616 362,-616 362,4 -4,4"/>
<!-- 0 -->
<g id="node1" class="node">
<title>0</title>
<path fill="none" stroke="#8fd856" stroke-width="2" stroke-dasharray="5,2" d="M72,-36C72,-36 42,-36 42,-36 36,-36 30,-30 30,-24 30,-24 30,-12 30,-12 30,-6 36,0 42,0 42,0 72,0 72,0 78,0 84,-6 84,-12 84,-12 84,-24 84,-24 84,-30 78,-36 72,-36"/>
<text text-anchor="middle" x="57" y="-15.5" font-family="sans" font-size="10.00">all</text>
</g>
<!-- 1 -->
<g id="node2" class="node">
<title>1</title>
<path fill="none" stroke="#b6d856" stroke-width="2" stroke-dasharray="5,2" d="M66.5,-468C66.5,-468 17.5,-468 17.5,-468 11.5,-468 5.5,-462 5.5,-456 5.5,-456 5.5,-444 5.5,-444 5.5,-438 11.5,-432 17.5,-432 17.5,-432 66.5,-432 66.5,-432 72.5,-432 78.5,-438 78.5,-444 78.5,-444 78.5,-456 78.5,-456 78.5,-462 72.5,-468 66.5,-468"/>
<text text-anchor="middle" x="42" y="-447.5" font-family="sans" font-size="10.00">report_prep</text>
</g>
<!-- 1&#45;&gt;0 -->
<g id="edge1" class="edge">
<title>1&#45;&gt;0</title>
<path fill="none" stroke="grey" stroke-width="2" d="M33.5,-431.99C21.23,-405.82 0,-353.79 0,-307 0,-307 0,-307 0,-161 0,-117.8 23,-72.19 39.78,-44.66"/>
<polygon fill="grey" stroke="grey" stroke-width="2" points="42.83,-46.37 45.19,-36.04 36.91,-42.65 42.83,-46.37"/>
</g>
<!-- 2 -->
<g id="node3" class="node">
<title>2</title>
<path fill="none" stroke="#d87d56" stroke-width="2" stroke-dasharray="5,2" d="M97.5,-612C97.5,-612 52.5,-612 52.5,-612 46.5,-612 40.5,-606 40.5,-600 40.5,-600 40.5,-588 40.5,-588 40.5,-582 46.5,-576 52.5,-576 52.5,-576 97.5,-576 97.5,-576 103.5,-576 109.5,-582 109.5,-588 109.5,-588 109.5,-600 109.5,-600 109.5,-606 103.5,-612 97.5,-612"/>
<text text-anchor="middle" x="75" y="-591.5" font-family="sans" font-size="10.00">filter_trees</text>
</g>
<!-- 2&#45;&gt;1 -->
<g id="edge5" class="edge">
<title>2&#45;&gt;1</title>
<path fill="none" stroke="grey" stroke-width="2" d="M70.25,-575.87C67.44,-565.51 63.87,-552.03 61,-540 56.08,-519.38 51.1,-495.93 47.47,-478.28"/>
<polygon fill="grey" stroke="grey" stroke-width="2" points="50.83,-477.22 45.4,-468.12 43.97,-478.61 50.83,-477.22"/>
</g>
<!-- 3 -->
<g id="node4" class="node">
<title>3</title>
<path fill="none" stroke="#d85656" stroke-width="2" stroke-dasharray="5,2" d="M133.5,-540C133.5,-540 82.5,-540 82.5,-540 76.5,-540 70.5,-534 70.5,-528 70.5,-528 70.5,-516 70.5,-516 70.5,-510 76.5,-504 82.5,-504 82.5,-504 133.5,-504 133.5,-504 139.5,-504 145.5,-510 145.5,-516 145.5,-516 145.5,-528 145.5,-528 145.5,-534 139.5,-540 133.5,-540"/>
<text text-anchor="middle" x="108" y="-519.5" font-family="sans" font-size="10.00">prep_mdata</text>
</g>
<!-- 2&#45;&gt;3 -->
<g id="edge7" class="edge">
<title>2&#45;&gt;3</title>
<path fill="none" stroke="grey" stroke-width="2" d="M83.16,-575.7C86.91,-567.73 91.45,-558.1 95.62,-549.26"/>
<polygon fill="grey" stroke="grey" stroke-width="2" points="98.84,-550.64 99.94,-540.1 92.51,-547.66 98.84,-550.64"/>
</g>
<!-- 3&#45;&gt;1 -->
<g id="edge6" class="edge">
<title>3&#45;&gt;1</title>
<path fill="none" stroke="grey" stroke-width="2" d="M91.69,-503.7C83.69,-495.22 73.93,-484.86 65.18,-475.58"/>
<polygon fill="grey" stroke="grey" stroke-width="2" points="67.53,-472.98 58.13,-468.1 62.44,-477.78 67.53,-472.98"/>
</g>
<!-- 6 -->
<g id="node7" class="node">
<title>6</title>
<path fill="none" stroke="#56d0d8" stroke-width="2" stroke-dasharray="5,2" d="M166,-468C166,-468 136,-468 136,-468 130,-468 124,-462 124,-456 124,-456 124,-444 124,-444 124,-438 130,-432 136,-432 136,-432 166,-432 166,-432 172,-432 178,-438 178,-444 178,-444 178,-456 178,-456 178,-462 172,-468 166,-468"/>
<text text-anchor="middle" x="151" y="-447.5" font-family="sans" font-size="10.00">sample</text>
</g>
<!-- 3&#45;&gt;6 -->
<g id="edge10" class="edge">
<title>3&#45;&gt;6</title>
<path fill="none" stroke="grey" stroke-width="2" d="M118.63,-503.7C123.63,-495.56 129.69,-485.69 135.21,-476.7"/>
<polygon fill="grey" stroke="grey" stroke-width="2" points="138.24,-478.46 140.49,-468.1 132.28,-474.79 138.24,-478.46"/>
</g>
<!-- 4 -->
<g id="node5" class="node">
<title>4</title>
<path fill="none" stroke="#56a9d8" stroke-width="2" stroke-dasharray="5,2" d="M198.5,-324C198.5,-324 145.5,-324 145.5,-324 139.5,-324 133.5,-318 133.5,-312 133.5,-312 133.5,-300 133.5,-300 133.5,-294 139.5,-288 145.5,-288 145.5,-288 198.5,-288 198.5,-288 204.5,-288 210.5,-294 210.5,-300 210.5,-300 210.5,-312 210.5,-312 210.5,-318 204.5,-324 198.5,-324"/>
<text text-anchor="middle" x="172" y="-303.5" font-family="sans" font-size="10.00">extract_pars</text>
</g>
<!-- 4&#45;&gt;0 -->
<g id="edge2" class="edge">
<title>4&#45;&gt;0</title>
<path fill="none" stroke="grey" stroke-width="2" d="M133.22,-287.82C117.89,-279.17 101.46,-267.24 91,-252 47.51,-188.67 49.55,-92.75 53.71,-46.22"/>
<polygon fill="grey" stroke="grey" stroke-width="2" points="57.22,-46.33 54.73,-36.03 50.25,-45.63 57.22,-46.33"/>
</g>
<!-- 7 -->
<g id="node8" class="node">
<title>7</title>
<path fill="none" stroke="#56d8b9" stroke-width="2" stroke-dasharray="5,2" d="M161.5,-252C161.5,-252 112.5,-252 112.5,-252 106.5,-252 100.5,-246 100.5,-240 100.5,-240 100.5,-228 100.5,-228 100.5,-222 106.5,-216 112.5,-216 112.5,-216 161.5,-216 161.5,-216 167.5,-216 173.5,-222 173.5,-228 173.5,-228 173.5,-240 173.5,-240 173.5,-246 167.5,-252 161.5,-252"/>
<text text-anchor="middle" x="137" y="-231.5" font-family="sans" font-size="10.00">prep_draws</text>
</g>
<!-- 4&#45;&gt;7 -->
<g id="edge11" class="edge">
<title>4&#45;&gt;7</title>
<path fill="none" stroke="grey" stroke-width="2" d="M163.35,-287.7C159.36,-279.73 154.55,-270.1 150.13,-261.26"/>
<polygon fill="grey" stroke="grey" stroke-width="2" points="153.15,-259.48 145.55,-252.1 146.89,-262.61 153.15,-259.48"/>
</g>
<!-- 9 -->
<g id="node10" class="node">
<title>9</title>
<path fill="none" stroke="#d8a456" stroke-width="2" stroke-dasharray="5,2" d="M230,-180C230,-180 200,-180 200,-180 194,-180 188,-174 188,-168 188,-168 188,-156 188,-156 188,-150 194,-144 200,-144 200,-144 230,-144 230,-144 236,-144 242,-150 242,-156 242,-156 242,-168 242,-168 242,-174 236,-180 230,-180"/>
<text text-anchor="middle" x="215" y="-159.5" font-family="sans" font-size="10.00">rhat</text>
</g>
<!-- 4&#45;&gt;9 -->
<g id="edge16" class="edge">
<title>4&#45;&gt;9</title>
<path fill="none" stroke="grey" stroke-width="2" d="M177.19,-287.87C184.55,-263.56 198.1,-218.82 206.82,-190.01"/>
<polygon fill="grey" stroke="grey" stroke-width="2" points="210.25,-190.77 209.79,-180.19 203.55,-188.75 210.25,-190.77"/>
</g>
<!-- 10 -->
<g id="node11" class="node">
<title>10</title>
<path fill="none" stroke="#56d86b" stroke-width="2" stroke-dasharray="5,2" d="M302,-180C302,-180 272,-180 272,-180 266,-180 260,-174 260,-168 260,-168 260,-156 260,-156 260,-150 266,-144 272,-144 272,-144 302,-144 302,-144 308,-144 314,-150 314,-156 314,-156 314,-168 314,-168 314,-174 308,-180 302,-180"/>
<text text-anchor="middle" x="287" y="-159.5" font-family="sans" font-size="10.00">trace</text>
</g>
<!-- 4&#45;&gt;10 -->
<g id="edge17" class="edge">
<title>4&#45;&gt;10</title>
<path fill="none" stroke="grey" stroke-width="2" d="M185.87,-287.87C205.99,-263.03 243.39,-216.85 266.64,-188.14"/>
<polygon fill="grey" stroke="grey" stroke-width="2" points="269.51,-190.16 273.08,-180.19 264.07,-185.76 269.51,-190.16"/>
</g>
<!-- 11 -->
<g id="node12" class="node">
<title>11</title>
<path fill="none" stroke="#d8cb56" stroke-width="2" stroke-dasharray="5,2" d="M346,-252C346,-252 316,-252 316,-252 310,-252 304,-246 304,-240 304,-240 304,-228 304,-228 304,-222 310,-216 316,-216 316,-216 346,-216 346,-216 352,-216 358,-222 358,-228 358,-228 358,-240 358,-240 358,-246 352,-252 346,-252"/>
<text text-anchor="middle" x="331" y="-231.5" font-family="sans" font-size="10.00">pairs</text>
</g>
<!-- 4&#45;&gt;11 -->
<g id="edge18" class="edge">
<title>4&#45;&gt;11</title>
<path fill="none" stroke="grey" stroke-width="2" d="M210.9,-287.88C236.49,-276.61 269.77,-261.96 294.8,-250.94"/>
<polygon fill="grey" stroke="grey" stroke-width="2" points="296.22,-254.14 303.96,-246.9 293.4,-247.73 296.22,-254.14"/>
</g>
<!-- 5 -->
<g id="node6" class="node">
<title>5</title>
<path fill="none" stroke="#68d856" stroke-width="2" stroke-dasharray="5,2" d="M183.5,-396C183.5,-396 132.5,-396 132.5,-396 126.5,-396 120.5,-390 120.5,-384 120.5,-384 120.5,-372 120.5,-372 120.5,-366 126.5,-360 132.5,-360 132.5,-360 183.5,-360 183.5,-360 189.5,-360 195.5,-366 195.5,-372 195.5,-372 195.5,-384 195.5,-384 195.5,-390 189.5,-396 183.5,-396"/>
<text text-anchor="middle" x="158" y="-375.5" font-family="sans" font-size="10.00">prep_chains</text>
</g>
<!-- 5&#45;&gt;4 -->
<g id="edge8" class="edge">
<title>5&#45;&gt;4</title>
<path fill="none" stroke="grey" stroke-width="2" d="M161.46,-359.7C163,-351.98 164.86,-342.71 166.58,-334.11"/>
<polygon fill="grey" stroke="grey" stroke-width="2" points="170.05,-334.6 168.58,-324.1 163.19,-333.22 170.05,-334.6"/>
</g>
<!-- 6&#45;&gt;5 -->
<g id="edge9" class="edge">
<title>6&#45;&gt;5</title>
<path fill="none" stroke="grey" stroke-width="2" d="M152.73,-431.7C153.5,-423.98 154.43,-414.71 155.29,-406.11"/>
<polygon fill="grey" stroke="grey" stroke-width="2" points="158.78,-406.4 156.29,-396.1 151.81,-405.71 158.78,-406.4"/>
</g>
<!-- 7&#45;&gt;0 -->
<g id="edge3" class="edge">
<title>7&#45;&gt;0</title>
<path fill="none" stroke="grey" stroke-width="2" d="M120.08,-215.71C111.4,-205.95 101.34,-193.1 95,-180 73.75,-136.11 63.97,-79.61 59.79,-46.54"/>
<polygon fill="grey" stroke="grey" stroke-width="2" points="63.23,-45.79 58.59,-36.27 56.28,-46.61 63.23,-45.79"/>
</g>
<!-- 12 -->
<g id="node13" class="node">
<title>12</title>
<path fill="none" stroke="#567bd8" stroke-width="2" stroke-dasharray="5,2" d="M157.5,-180C157.5,-180 116.5,-180 116.5,-180 110.5,-180 104.5,-174 104.5,-168 104.5,-168 104.5,-156 104.5,-156 104.5,-150 110.5,-144 116.5,-144 116.5,-144 157.5,-144 157.5,-144 163.5,-144 169.5,-150 169.5,-156 169.5,-156 169.5,-168 169.5,-168 169.5,-174 163.5,-180 157.5,-180"/>
<text text-anchor="middle" x="137" y="-159.5" font-family="sans" font-size="10.00">posteriors</text>
</g>
<!-- 7&#45;&gt;12 -->
<g id="edge19" class="edge">
<title>7&#45;&gt;12</title>
<path fill="none" stroke="grey" stroke-width="2" d="M137,-215.7C137,-207.98 137,-198.71 137,-190.11"/>
<polygon fill="grey" stroke="grey" stroke-width="2" points="140.5,-190.1 137,-180.1 133.5,-190.1 140.5,-190.1"/>
</g>
<!-- 8 -->
<g id="node9" class="node">
<title>8</title>
<path fill="none" stroke="#56d892" stroke-width="2" stroke-dasharray="5,2" d="M230,-108C230,-108 200,-108 200,-108 194,-108 188,-102 188,-96 188,-96 188,-84 188,-84 188,-78 194,-72 200,-72 200,-72 230,-72 230,-72 236,-72 242,-78 242,-84 242,-84 242,-96 242,-96 242,-102 236,-108 230,-108"/>
<text text-anchor="middle" x="215" y="-87.5" font-family="sans" font-size="10.00">report</text>
</g>
<!-- 8&#45;&gt;0 -->
<g id="edge4" class="edge">
<title>8&#45;&gt;0</title>
<path fill="none" stroke="grey" stroke-width="2" d="M187.84,-76.97C161.76,-65.41 122.18,-47.88 93.39,-35.12"/>
<polygon fill="grey" stroke="grey" stroke-width="2" points="94.63,-31.84 84.07,-30.99 91.8,-38.24 94.63,-31.84"/>
</g>
<!-- 9&#45;&gt;8 -->
<g id="edge12" class="edge">
<title>9&#45;&gt;8</title>
<path fill="none" stroke="grey" stroke-width="2" d="M215,-143.7C215,-135.98 215,-126.71 215,-118.11"/>
<polygon fill="grey" stroke="grey" stroke-width="2" points="218.5,-118.1 215,-108.1 211.5,-118.1 218.5,-118.1"/>
</g>
<!-- 10&#45;&gt;8 -->
<g id="edge13" class="edge">
<title>10&#45;&gt;8</title>
<path fill="none" stroke="grey" stroke-width="2" d="M269.2,-143.7C260.4,-135.14 249.62,-124.66 240,-115.3"/>
<polygon fill="grey" stroke="grey" stroke-width="2" points="242.2,-112.57 232.59,-108.1 237.32,-117.58 242.2,-112.57"/>
</g>
<!-- 11&#45;&gt;8 -->
<g id="edge14" class="edge">
<title>11&#45;&gt;8</title>
<path fill="none" stroke="grey" stroke-width="2" d="M334.09,-215.95C336.61,-196.72 337.67,-165.35 323,-144 306.57,-120.1 276.19,-106.53 251.82,-99.12"/>
<polygon fill="grey" stroke="grey" stroke-width="2" points="252.72,-95.74 242.15,-96.4 250.82,-102.48 252.72,-95.74"/>
</g>
<!-- 12&#45;&gt;8 -->
<g id="edge15" class="edge">
<title>12&#45;&gt;8</title>
<path fill="none" stroke="grey" stroke-width="2" d="M156.28,-143.7C165.92,-135.05 177.73,-124.45 188.23,-115.03"/>
<polygon fill="grey" stroke="grey" stroke-width="2" points="190.84,-117.39 195.94,-108.1 186.16,-112.18 190.84,-117.39"/>
</g>
</g>
</svg>
